# xmcd
#
# Track frame offsets: 
#        150
#        11876
#        24314
#        38238
#        50947
#        63223
#        74744
#        87262
#        98754
#        111398
#        122823
#        133374
#        146008
#        157798
#        169489
#        182105
#        194110
#        205865
#        219372
#        227797
#
# Disc length: 3218 seconds
#
# Revision: 2
# Processed by: cddbd v1.5.2PL0 Copyright (c) Steve Scherf et al.
# Submitted via: ExactAudioCopy v1.1
#
DISCID=360c9014
DTITLE=Various Artist - Rhythm and Blues Goes Rock 'N' Roll - CD02
DYEAR=2002
DGENRE=Blues
TTITLE0=Mabel Scott - Baseball Boogie (mono)
TTITLE1=Lil Armstrong - Joogie Boogie (mono)
TTITLE2=Johnny Griffin - Chuck-A-Boogie (mono)
TTITLE3=Joe Morris - Beans And Corn Bread (mono)
TTITLE4=Joe Liggins - Dripper's Boogie (mono)
TTITLE5=Lowell Fulson - Baby Won't You Jump With Me (mono)
TTITLE6=Joe Turner - Rocket Boogie 88 (mono)
TTITLE7=Jimmy McCracklin - The Cheater (mono)
TTITLE8=Eddie Vinson - Home Boy (mono)
TTITLE9=Mabel Scott - Subway Blues (mono)
TTITLE10=Lowell Fulson - Juke Box Shuffle (mono)
TTITLE11=Jimmy McCracklin - Blues Blasters Boogie (mono)
TTITLE12=Brownie McGhee - Feed Me Baby (mono)
TTITLE13=The Rockets - Big Leg Mama (mono)
TTITLE14=Mabel Scott - Catch 'Em Young (mono)
TTITLE15=Mary Deloatch - Beer Bottle Boogie (mono)
TTITLE16=Morris Lane - Bobby's Boogie (mono)
TTITLE17=Lee Barnes - Blues For What I Never Had (mono)
TTITLE18=Harry Crafton - Roly Poly Mama (mono)
TTITLE19=Mabel Scott - Boogie Woogie Choo Choo Train (mono)
EXTD=
EXTT0=
EXTT1=
EXTT2=
EXTT3=
EXTT4=
EXTT5=
EXTT6=
EXTT7=
EXTT8=
EXTT9=
EXTT10=
EXTT11=
EXTT12=
EXTT13=
EXTT14=
EXTT15=
EXTT16=
EXTT17=
EXTT18=
EXTT19=
PLAYORDER=
